<svg xmlns="http://www.w3.org/2000/svg" viewBox="0 0 512 512" role="img" aria-label="Qadam">
  <rect width="512" height="512" rx="112" fill="#17625c" />
  <circle cx="352" cy="160" r="54" fill="#f4c46b" />
  <path
    fill="#fbfaf7"
    d="M256 104c-84 0-152 68-152 152s68 152 152 152c28 0 54-8 76-21l47 48c9 9 24 3 24-10V256c0-84-68-152-147-152Zm0 70c48 0 82 35 82 82 0 19-6 36-17 50l-31-32c-12-12-31-12-43 0s-12 31 0 43l23 23c-5 1-9 1-14 1-48 0-85-37-85-85s37-82 85-82Z"
  />
  <path
    fill="#cf6442"
    d="M166 369c24 25 56 39 90 39 22 0 43-5 61-15l-47-48c-5 1-10 2-14 2-46 0-91-36-91-91 0-45 36-82 91-82 40 0 74 26 86 63 3-42-11-78-38-102-15-8-31-12-48-12-73 0-133 60-133 133 0 43 18 83 43 113Z"
    opacity=".24"
  />
</svg>
